<svg width="26" height="26" viewBox="0 0 26 26" fill="none" xmlns="http://www.w3.org/2000/svg">
<path d="M13 0C5.83151 0 0 5.83151 0 13C0 20.1685 5.83151 26 13 26C20.1685 26 26 20.1685 26 13C26 5.83151 20.1685 0 13 0ZM18.6875 14.0833H14.0833V18.6875C14.0833 19.2856 13.5981 19.7708 13 19.7708C12.4019 19.7708 11.9167 19.2856 11.9167 18.6875V14.0833H7.3125C6.71443 14.0833 6.22923 13.5981 6.22923 13C6.22923 12.4019 6.71443 11.9167 7.3125 11.9167H11.9167V7.3125C11.9167 6.71443 12.4019 6.22923 13 6.22923C13.5981 6.22923 14.0833 6.71443 14.0833 7.3125V11.9167H18.6875C19.2856 11.9167 19.7708 12.4019 19.7708 13C19.7708 13.5981 19.2856 14.0833 18.6875 14.0833Z" fill="#74CABF"/>
</svg>
