<svg width="18" height="18" viewBox="0 0 18 18" fill="none" xmlns="http://www.w3.org/2000/svg">
<g clip-path="url(#clip0)">
<path d="M15.1875 7.27734C16.2554 7.27734 17.1211 6.41164 17.1211 5.34375C17.1211 4.27586 16.2554 3.41016 15.1875 3.41016C14.1196 3.41016 13.2539 4.27586 13.2539 5.34375C13.2539 6.41164 14.1196 7.27734 15.1875 7.27734Z" fill="#F25252"/>
<path d="M15.1875 7.27734V3.41016C16.2538 3.41016 17.1211 4.27746 17.1211 5.34375C17.1211 6.41004 16.2538 7.27734 15.1875 7.27734Z" fill="#E34848"/>
<path d="M18 10.8454V14.6482C18 15.2364 17.5198 15.7148 16.9291 15.7148H13.2209C12.9298 15.7148 12.6935 15.4786 12.6935 15.1875C12.6935 14.6748 12.4102 12.0772 12.4102 10.8454C12.4102 9.53719 13.481 8.47266 14.7973 8.47266H15.6129C16.9291 8.47266 18 9.53719 18 10.8454Z" fill="#F25252"/>
<path d="M18 10.8454V14.6482C18 15.2364 17.5198 15.7148 16.9291 15.7148H15.1875V8.47266H15.6129C16.9291 8.47266 18 9.53719 18 10.8454Z" fill="#E34848"/>
<path d="M2.8125 7.27734C3.88039 7.27734 4.74609 6.41164 4.74609 5.34375C4.74609 4.27586 3.88039 3.41016 2.8125 3.41016C1.74461 3.41016 0.878906 4.27586 0.878906 5.34375C0.878906 6.41164 1.74461 7.27734 2.8125 7.27734Z" fill="#F25252"/>
<path d="M2.8125 7.27734V3.41016C3.87879 3.41016 4.74609 4.27746 4.74609 5.34375C4.74609 6.41004 3.87879 7.27734 2.8125 7.27734Z" fill="#E34848"/>
<path d="M5.58984 10.8454C5.58984 12.1167 5.30648 14.6515 5.30648 15.1875C5.30648 15.4786 5.07023 15.7148 4.77914 15.7148H1.03395C0.463711 15.7148 0 15.2529 0 14.6848V10.8454C0 9.53719 1.07086 8.47266 2.38711 8.47266H3.20273C4.51898 8.47266 5.58984 9.53719 5.58984 10.8454Z" fill="#F25252"/>
<path d="M5.58984 10.8454C5.58984 12.1167 5.30648 14.6515 5.30648 15.1875C5.30648 15.4786 5.07023 15.7148 4.77914 15.7148H2.8125V8.47266H3.20273C4.51898 8.47266 5.58984 9.53719 5.58984 10.8454Z" fill="#E34848"/>
<path d="M9 7.27734C10.6892 7.27734 12.0586 5.90796 12.0586 4.21875C12.0586 2.52954 10.6892 1.16016 9 1.16016C7.31079 1.16016 5.94141 2.52954 5.94141 4.21875C5.94141 5.90796 7.31079 7.27734 9 7.27734Z" fill="#CBCE3C"/>
<path d="M9 7.27734V1.16016C10.6864 1.16016 12.0586 2.5323 12.0586 4.21875C12.0586 5.9052 10.6864 7.27734 9 7.27734Z" fill="#EACA23"/>
<path d="M13.7461 12.7273V15.6087C13.7461 16.2875 13.1938 16.8398 12.5149 16.8398H5.48508C4.80621 16.8398 4.25391 16.2875 4.25391 15.6087V12.7273C4.25391 10.3813 6.16254 8.47266 8.50852 8.47266H9.49148C11.8375 8.47266 13.7461 10.3813 13.7461 12.7273Z" fill="#CBCE3C"/>
<path d="M13.7461 12.7273V15.6087C13.7461 16.2875 13.1938 16.8398 12.5149 16.8398H9V8.47266H9.49148C11.8375 8.47266 13.7461 10.3813 13.7461 12.7273Z" fill="#EACA23"/>
</g>
<defs>
<clipPath id="clip0">
<rect width="18" height="18" fill="white"/>
</clipPath>
</defs>
</svg>
