<svg width="18" height="18" viewBox="0 0 18 18" fill="none" xmlns="http://www.w3.org/2000/svg">
<g clip-path="url(#clip0)">
<path d="M10.5 9.7501C9.25952 9.7501 8.25002 8.7406 8.25002 7.50012C8.25002 6.25964 9.25952 5.25014 10.5 5.25014H11.9999V2.25022C11.9999 1.00974 10.9904 0.000244141 9.74992 0.000244141H1.68755C1.44077 0.000244141 1.20979 0.121642 1.06957 0.324887C0.930049 0.528132 0.898601 0.786994 0.98704 1.01716L6.42453 15.2671C6.5348 15.5581 6.81371 15.7501 7.12504 15.7501H9.74992C10.9904 15.7501 11.9999 14.7406 11.9999 13.5001V9.7501H10.5Z" fill="#5D9B50"/>
<path d="M13.9628 11.1931C13.6831 11.0768 13.5 10.8031 13.5 10.5V8.25004H10.5001C10.086 8.25004 9.75 7.91414 9.75 7.5001C9.75 7.08605 10.086 6.75015 10.5001 6.75015H13.5V4.50017C13.5 4.19709 13.6831 3.9234 13.9628 3.80708C14.2432 3.6909 14.5658 3.75545 14.7802 3.96995L17.7802 6.96987C18.0734 7.26307 18.0734 7.73712 17.7802 8.03032L14.7802 11.0304C14.5658 11.2447 14.2432 11.3093 13.9628 11.1931Z" fill="#607D8B"/>
<path d="M6.48448 1.57651L1.97779 0.0742801C0.960744 -0.238415 0 0.512355 0 1.50002V14.9999C0 15.6412 0.408001 16.2134 1.01554 16.4234L5.5214 17.9256C5.68715 17.9766 5.83945 17.9999 5.99998 17.9999C6.82725 17.9999 7.49988 17.3272 7.49988 16.4999V3.00005C7.49988 2.35886 7.09188 1.78662 6.48448 1.57651Z" fill="#97CE8B"/>
</g>
<defs>
<clipPath id="clip0">
<rect width="18" height="18" fill="white"/>
</clipPath>
</defs>
</svg>
