<svg width="18" height="18" viewBox="0 0 18 18" fill="none" xmlns="http://www.w3.org/2000/svg">
<g clip-path="url(#clip0)">
<path d="M17.8455 13.0452C17.134 12.3337 16.2937 11.8092 15.3478 11.4863C15.1696 11.4254 14.9724 11.4643 14.8306 11.5881C14.7689 11.642 12.4951 13.8039 9.14502 12.9113C9.09833 12.898 9.04967 12.8911 9.00025 12.8911C8.95082 12.8911 8.90156 12.898 8.85491 12.9113C5.50484 13.8039 3.23111 11.642 3.1693 11.5881C3.02748 11.4643 2.83036 11.4255 2.65215 11.4863C1.70627 11.8092 0.865898 12.3337 0.154406 13.0452C0.055582 13.1441 0 13.2785 0 13.4184C0 13.5582 0.055582 13.6923 0.154477 13.7912C1.38561 15.0224 3.02249 15.7004 4.76357 15.7004C6.33435 15.7004 7.8203 15.1484 9.00004 14.1364C10.1798 15.1484 11.6657 15.7004 13.2365 15.7004C14.9776 15.7004 16.6145 15.0224 17.8456 13.7912C17.9445 13.6923 18.0001 13.5582 18.0001 13.4184C18 13.2785 17.9444 13.1441 17.8455 13.0452Z" fill="#FF4380"/>
<path d="M17.8455 13.0452C17.134 12.3337 16.2937 11.8092 15.3478 11.4863C15.1696 11.4254 14.9724 11.4643 14.8306 11.5881C14.7689 11.642 12.4951 13.8039 9.14502 12.9113C9.09833 12.898 9.04968 12.8911 9.00025 12.8911L9 14.1364C10.1797 15.1485 11.6657 15.7004 13.2365 15.7004C14.9775 15.7004 16.6144 15.0224 17.8456 13.7913C17.9445 13.6924 18 13.5583 18 13.4184C18 13.2785 17.9444 13.1441 17.8455 13.0452Z" fill="#F7006A"/>
<path d="M17.3777 8.13943C16.252 7.84021 15.0568 7.81662 13.9205 8.07144C13.7366 8.11267 13.5887 8.24887 13.5325 8.42876C13.2874 9.21349 12.6836 10.6217 11.2125 11.7505C10.5472 12.261 9.80341 12.6373 9.00002 12.8706C8.19663 12.6373 7.4529 12.261 6.78753 11.7505C5.31645 10.6217 4.71268 9.21345 4.4675 8.42876C4.41132 8.2489 4.26341 8.11267 4.07955 8.07144C2.94323 7.81662 1.74805 7.84018 0.622316 8.13943C0.390285 8.19483 0.217773 8.4037 0.217773 8.65267C0.217773 8.6988 0.22382 8.74471 0.235773 8.78926C0.774367 10.7981 2.08946 12.3171 3.62167 13.2016C5.12239 14.0682 7.04041 14.4474 9.00005 13.9621C10.9597 14.4474 12.8777 14.0682 14.3784 13.2016C15.9106 12.3171 17.2257 10.7981 17.7643 8.78926C17.7763 8.74471 17.7823 8.6988 17.7823 8.65267C17.7823 8.4037 17.6097 8.19483 17.3777 8.13943Z" fill="#FF759D"/>
<path d="M17.3777 8.13942C16.252 7.8402 15.0568 7.81661 13.9205 8.07142C13.7366 8.11266 13.5887 8.24886 13.5325 8.42875C13.2873 9.21347 12.6836 10.6217 11.2125 11.7504C10.5472 12.261 9.80339 12.6373 9 12.8706V13.962C10.9596 14.4473 12.8777 14.0682 14.3784 13.2016C15.9106 12.3171 17.2256 10.7981 17.7643 8.78924C17.7762 8.7447 17.7823 8.69878 17.7823 8.65266C17.7822 8.40368 17.6097 8.19482 17.3777 8.13942Z" fill="#FF4380"/>
<path d="M14.6285 4.41558C14.5531 4.13429 14.2641 3.96741 13.9827 4.04275C12.7191 4.38116 11.5528 5.03936 10.6097 5.94618C10.4739 6.07675 10.4181 6.26986 10.4632 6.45274C10.6332 7.14075 10.944 8.83729 10.1365 10.7867C9.85528 11.4657 9.47394 12.0876 9.00025 12.6419C8.52655 12.0876 8.14518 11.4657 7.86396 10.7867C7.05646 8.83729 7.36731 7.14075 7.53725 6.45274C7.58243 6.26986 7.5266 6.07675 7.39079 5.94618C6.44769 5.03936 5.28135 4.38116 4.01783 4.04275C3.73644 3.96744 3.44742 4.13429 3.37201 4.41558C2.79643 6.56285 3.20238 8.6717 4.1477 10.3089C5.09298 11.9461 6.71607 13.3519 8.86345 13.9275C8.90884 13.9397 8.95468 13.9455 9 13.9455C9.04532 13.9455 9.09172 13.9397 9.13711 13.9275C11.2845 13.3519 12.9076 11.9461 13.8529 10.3089C14.7981 8.67166 15.2041 6.56285 14.6285 4.41558Z" fill="#FF4380"/>
<path d="M14.6285 4.41558C14.5531 4.13429 14.2641 3.96741 13.9827 4.04275C12.7192 4.38116 11.5528 5.03936 10.6097 5.94618C10.4739 6.07675 10.4181 6.26986 10.4633 6.45274C10.6332 7.14075 10.944 8.83729 10.1366 10.7867C9.85531 11.4657 9.47398 12.0876 9.00028 12.6419L9 13.9455C9.04532 13.9455 9.09172 13.9397 9.13711 13.9275C11.2844 13.3519 12.9076 11.9461 13.8529 10.3089C14.7981 8.67166 15.2041 6.56285 14.6285 4.41558Z" fill="#F7006A"/>
<path d="M9.00021 13.9456C8.86036 13.9456 8.72592 13.89 8.62702 13.7911C7.24683 12.4109 6.2793 10.417 6.2793 8.1228C6.2793 5.82967 7.24577 3.83574 8.62702 2.45453C8.72592 2.35563 8.86004 2.30005 8.99989 2.30005C9.13974 2.30005 9.27418 2.35563 9.37307 2.45453C10.7536 3.83501 11.7208 5.82865 11.7208 8.1228C11.7208 10.4175 10.7528 12.4113 9.37307 13.7911C9.27418 13.89 9.14006 13.9456 9.00021 13.9456Z" fill="#FF759D"/>
<path d="M9.00028 13.9456L9 2.30005C9.13985 2.30005 9.27429 2.35563 9.37318 2.45453C10.7537 3.83501 11.7209 5.82865 11.7209 8.1228C11.7209 10.4175 10.753 12.4113 9.37318 13.7911C9.27425 13.89 9.14013 13.9456 9.00028 13.9456Z" fill="#FF4380"/>
</g>
<defs>
<clipPath id="clip0">
<rect width="18" height="18" fill="white"/>
</clipPath>
</defs>
</svg>
